<svg width="218" height="32" viewBox="0 0 218 32" fill="none" xmlns="http://www.w3.org/2000/svg">
<rect width="218" height="32" fill="#E5E5E5"/>
<g clip-path="url(#clip0)">
<rect width="218" height="32" fill="white"/>
<path d="M8.66406 5.80078C10.1055 5.80078 11.2188 6.04102 12.0039 6.52148C13.0938 7.21289 13.9668 8.50781 14.623 10.4062C16.9902 17.3086 18.4902 21.5918 19.123 23.2559C19.7793 24.9902 20.582 25.9512 21.5312 26.1387L22.3223 26.2793V27H15.0801V26.2617L16.4336 25.9629C16.9844 25.8223 17.2656 25.5176 17.2773 25.0488C17.2773 24.7676 17.1953 24.3867 17.0312 23.9062L15.7305 20.0039H8.61133C7.61523 23.1562 7.10547 24.832 7.08203 25.0312C7.08203 25.5469 7.49219 25.8984 8.3125 26.0859L9.34961 26.2793V27H2.72266V26.2617L3.70703 26.0859C4.57422 25.9219 5.33008 24.9082 5.97461 23.0449L9.77148 12.0234C10.4629 9.99609 10.8262 8.77734 10.8613 8.36719C10.9082 7.95703 10.7734 7.75195 10.457 7.75195C10.082 7.75195 9.72461 7.81641 9.38477 7.94531C9.05664 8.07422 8.8457 8.13867 8.75195 8.13867C8.18945 8.13867 7.80859 7.88086 7.60938 7.36523C7.55078 7.18945 7.52148 7.00781 7.52148 6.82031C7.60352 6.17578 7.98438 5.83594 8.66406 5.80078ZM12.2148 9.17578L8.98047 18.9141H15.3965L12.2148 9.17578ZM22.7266 6.82031C22.7266 6.14062 23.1543 5.80078 24.0098 5.80078C26.2949 5.80078 27.918 6.36328 28.8789 7.48828L40.1992 22.9395V9.79102C40.1992 8.72461 40.1055 8.0332 39.918 7.7168C39.7305 7.40039 39.3613 7.18359 38.8105 7.06641L37.791 6.85547V6.08203H43.75V6.89062L42.5547 7.13672C42.1445 7.21875 41.8984 7.34766 41.8164 7.52344C41.7344 7.69922 41.6934 8.13867 41.6934 8.8418V27.5098H40.9727L28.5625 10.7754L28.5449 24.3281C28.5449 25.1016 28.6094 25.5645 28.7383 25.7168C28.8789 25.8574 29.1309 25.9629 29.4941 26.0332L30.6895 26.2793V27H24.7656V26.3145L25.7852 26.1035C26.4062 25.9746 26.7754 25.7344 26.8926 25.3828C27.0215 25.0312 27.0859 24.3574 27.0859 23.3613V11.0918C27.0742 8.6543 26.7402 7.42383 26.084 7.40039C25.7793 7.40039 25.3691 7.52344 24.8535 7.76953C24.3379 8.01562 24.0391 8.13867 23.957 8.13867C23.3945 8.13867 23.0137 7.88086 22.8145 7.36523C22.7559 7.18945 22.7266 7.00781 22.7266 6.82031ZM59.9922 32.9238C61.0586 32.9238 61.5918 31.7227 61.5918 29.3203V26.6836C60.0918 27.2812 58.5273 27.5801 56.8984 27.5801C53.1953 27.5801 50.3535 26.332 48.373 23.8359C46.7559 21.7969 45.9414 19.3301 45.9297 16.4355C45.9297 13.5293 46.7734 11.1445 48.4609 9.28125C50.5 7.03125 53.1133 5.90039 56.3008 5.88867C58.9141 5.88867 61.1992 6.52148 63.1562 7.78711C63.4844 7.99805 63.7363 8.18555 63.9121 8.34961V12.3574H63.0508C63.0039 11.748 62.7578 11.0508 62.3125 10.2656C61.1172 8.09766 59.1484 7.00781 56.4062 6.99609C54.2031 6.99609 52.3398 7.94531 50.8164 9.84375C49.2578 11.7773 48.4785 13.9219 48.4785 16.2773C48.4785 18.0703 48.8535 19.8105 49.6035 21.498C51.0801 24.8145 53.541 26.4785 56.9863 26.4902C58.9902 26.4902 60.5371 25.9043 61.627 24.7324V22.4121C61.627 21.3457 61.5391 20.6543 61.3633 20.3379C61.1875 20.0098 60.8242 19.7871 60.2734 19.6699L59.2363 19.459V18.7207H66.0566V19.4941L64.8613 19.7578C64.4395 19.8516 64.1875 19.9863 64.1055 20.1621C64.0352 20.3262 64 21.5742 64 23.9062V27.4043C63.9648 30.8496 62.8105 32.9473 60.5371 33.6973C59.9395 33.8965 58.9727 33.9961 57.6367 33.9961C57.0977 33.9961 56.7227 33.8379 56.5117 33.5215C56.3008 33.2051 56.2012 32.9238 56.2129 32.6777C56.2598 31.9629 56.6699 31.6055 57.4434 31.6055C57.9355 31.6055 58.4395 31.8223 58.9551 32.2559C59.4824 32.6895 59.8281 32.9121 59.9922 32.9238ZM79.1699 25.9102C80.1191 25.9102 80.6875 25.1953 80.875 23.7656H81.5781V27H67.5859V26.2617L68.6055 26.0508C69.2383 25.9219 69.625 25.6641 69.7656 25.2773C69.9062 24.8906 69.9766 24.2344 69.9766 23.3086V9.77344C69.9766 8.70703 69.8887 8.01562 69.7129 7.69922C69.5371 7.37109 69.1738 7.14844 68.623 7.03125L67.5859 6.82031V6.08203H80.5586V9.31641H79.8555C79.6562 7.91016 79.0879 7.19531 78.1504 7.17188H72.332V16.1191H76.3926C76.8379 16.1191 77.1016 16.0488 77.1836 15.9082C77.2773 15.7676 77.377 15.4746 77.4824 15.0293L77.6582 14.2559H78.3965V19.0371H77.6582C77.4707 18.0762 77.2949 17.5312 77.1309 17.4023C76.9785 17.2734 76.7266 17.209 76.375 17.209H72.332V25.9102H79.1699ZM86.0254 23.3438V9.79102C86.0254 8.72461 85.9316 8.0332 85.7441 7.7168C85.5566 7.40039 85.1875 7.18359 84.6367 7.06641L83.6172 6.85547V6.08203H90.4551V6.87305L89.2598 7.13672C88.8379 7.23047 88.5918 7.36523 88.5215 7.54102C88.4395 7.7168 88.3984 8.15039 88.3984 8.8418V25.9102H94.9023C95.7578 25.9102 96.3262 25.2539 96.6074 23.9414C96.6895 23.5547 96.7305 23.209 96.7305 22.9043H97.6445V27H83.7051V26.2969L84.7246 26.0859C85.3457 25.9805 85.7207 25.7461 85.8496 25.3828C85.9668 25.0195 86.0254 24.3398 86.0254 23.3438ZM105.836 7.34766C105.836 6.51563 106.428 6.09375 107.611 6.08203H119.371C120.449 6.08203 121.498 6.33398 122.518 6.83789C124.357 7.76367 125.283 9.26953 125.295 11.3555C125.295 12.9492 124.592 14.3027 123.186 15.416C122.564 15.8965 121.885 16.2773 121.146 16.5586C122.143 17.1562 123.021 18.1055 123.783 19.4062C125.236 21.9258 126.32 23.6836 127.035 24.6797C127.762 25.6758 128.482 26.2793 129.197 26.4902V27.4219C127.299 27.5977 125.822 27.2344 124.768 26.332C123.725 25.4297 122.67 23.918 121.604 21.7969C120.537 19.6641 119.857 18.3574 119.564 17.877C119.271 17.3965 118.99 17.1562 118.721 17.1562C118.463 17.1445 118.246 17.3496 118.07 17.7715C117.906 18.1934 117.771 18.457 117.666 18.5625C117.49 18.7266 117.209 18.8145 116.822 18.8262C116.447 18.8262 116.148 18.6562 115.926 18.3164C115.715 17.9766 115.609 17.6543 115.609 17.3496C115.609 16.3535 116.459 15.8555 118.158 15.8555C118.51 15.8555 118.803 15.8672 119.037 15.8906C120.537 15.8203 121.58 15.082 122.166 13.6758C122.424 13.0312 122.553 12.334 122.553 11.584C122.553 9.7793 121.896 8.50781 120.584 7.76953C119.881 7.38281 119.066 7.18945 118.141 7.18945H115.064V24.3457C115.064 25.1074 115.129 25.5645 115.258 25.7168C115.387 25.8574 115.639 25.9629 116.014 26.0332L117.209 26.2793V27H110.371V26.3145L111.391 26.1035C112.012 25.9746 112.381 25.7344 112.498 25.3828C112.627 25.0312 112.691 24.3574 112.691 23.3613V9.43945C112.457 7.9043 111.836 7.11328 110.828 7.06641C110.477 7.06641 110.014 7.29492 109.439 7.75195C108.654 8.38477 107.975 8.70703 107.4 8.71875C106.826 8.71875 106.422 8.56641 106.188 8.26172C105.953 7.94531 105.836 7.64063 105.836 7.34766ZM142.627 25.9102C143.576 25.9102 144.145 25.1953 144.332 23.7656H145.035V27H131.043V26.2617L132.062 26.0508C132.695 25.9219 133.082 25.6641 133.223 25.2773C133.363 24.8906 133.434 24.2344 133.434 23.3086V9.77344C133.434 8.70703 133.346 8.01562 133.17 7.69922C132.994 7.37109 132.631 7.14844 132.08 7.03125L131.043 6.82031V6.08203H144.016V9.31641H143.312C143.113 7.91016 142.545 7.19531 141.607 7.17188H135.789V16.1191H139.85C140.295 16.1191 140.559 16.0488 140.641 15.9082C140.734 15.7676 140.834 15.4746 140.939 15.0293L141.115 14.2559H141.854V19.0371H141.115C140.928 18.0762 140.752 17.5312 140.588 17.4023C140.436 17.2734 140.184 17.209 139.832 17.209H135.789V25.9102H142.627ZM157.832 5.88867C160.117 5.90039 162.191 6.43359 164.055 7.48828C164.488 7.72266 164.799 7.92188 164.986 8.08594L165.268 8.34961V12.3574H164.406C164.348 11.8652 164.096 11.2324 163.65 10.459C162.35 8.20898 160.387 7.07813 157.762 7.06641C155.605 7.06641 153.783 7.94531 152.295 9.70312C150.725 11.5547 149.939 13.7461 149.939 16.2773C149.939 18.1406 150.344 19.916 151.152 21.6035C152.641 24.7324 155.031 26.3027 158.324 26.3145C161.207 26.3145 163.082 25.2715 163.949 23.1855C164.184 22.6113 164.336 21.9844 164.406 21.3047H165.268V25.2773C162.994 26.8125 160.463 27.5801 157.674 27.5801C154.334 27.5801 151.738 26.3672 149.887 23.9414C148.316 21.8789 147.531 19.4707 147.531 16.7168C147.531 13.3535 148.516 10.7109 150.484 8.78906C152.465 6.85547 154.914 5.88867 157.832 5.88867ZM168.994 7.03125C167.822 7.03125 167.23 6.62109 167.219 5.80078C167.219 5.17969 167.523 4.75195 168.133 4.51758C168.344 4.44727 168.549 4.40625 168.748 4.39453C169.369 4.39453 169.861 4.61719 170.225 5.0625C170.6 5.50781 170.857 5.78906 170.998 5.90625C171.15 6.02344 171.373 6.08203 171.666 6.08203H177.871V6.85547L176.676 7.11914C176.254 7.21289 176.002 7.34766 175.92 7.52344C175.85 7.6875 175.814 8.11523 175.814 8.80664V24.3105C175.814 25.0605 175.867 25.5059 175.973 25.6465C176.078 25.7754 176.312 25.8809 176.676 25.9629L177.871 26.2266V27H171.051V26.2617L172.07 26.0508C172.703 25.9219 173.09 25.6641 173.23 25.2773C173.371 24.8906 173.441 24.2344 173.441 23.3086V9.28125C173.418 8.05078 173.119 7.3418 172.545 7.1543C172.369 7.0957 172.141 7.06641 171.859 7.06641L168.994 7.03125ZM179.594 7.34766C179.594 6.51563 180.186 6.09375 181.369 6.08203H192.865C194.447 6.08203 195.801 6.50977 196.926 7.36523C198.051 8.2207 198.607 9.5332 198.596 11.3027C198.572 15.0879 196.586 16.9805 192.637 16.9805C190.961 16.9336 190.1 16.5117 190.053 15.7148C190.088 14.8242 190.586 14.373 191.547 14.3613C192.051 14.3613 192.443 14.5605 192.725 14.959C193.006 15.3574 193.188 15.5918 193.27 15.6621C193.445 15.791 193.656 15.8555 193.902 15.8555C195.332 15.8555 196.047 14.4316 196.047 11.584C196.047 10.0254 195.508 8.82422 194.43 7.98047C193.75 7.45312 193.018 7.18945 192.232 7.18945H188.857V24.3457C188.857 25.1074 188.922 25.5645 189.051 25.7168C189.18 25.8574 189.432 25.9629 189.807 26.0332L191.002 26.2793V27H184.164V26.3145L185.184 26.1035C185.805 25.9746 186.174 25.7344 186.291 25.3828C186.42 25.0312 186.484 24.3574 186.484 23.3613V10.2129C186.414 8.60742 186.045 7.62305 185.377 7.25977C185.143 7.14258 184.861 7.08398 184.533 7.08398C184.217 7.08398 183.771 7.3125 183.197 7.76953C182.424 8.39062 181.744 8.70703 181.158 8.71875C180.584 8.71875 180.18 8.56641 179.945 8.26172C179.711 7.94531 179.594 7.64063 179.594 7.34766ZM210.83 25.9102C211.779 25.9102 212.348 25.1953 212.535 23.7656H213.238V27H199.246V26.2617L200.266 26.0508C200.898 25.9219 201.285 25.6641 201.426 25.2773C201.566 24.8906 201.637 24.2344 201.637 23.3086V9.77344C201.637 8.70703 201.549 8.01562 201.373 7.69922C201.197 7.37109 200.834 7.14844 200.283 7.03125L199.246 6.82031V6.08203H212.219V9.31641H211.516C211.316 7.91016 210.748 7.19531 209.811 7.17188H203.992V16.1191H208.053C208.498 16.1191 208.762 16.0488 208.844 15.9082C208.938 15.7676 209.037 15.4746 209.143 15.0293L209.318 14.2559H210.057V19.0371H209.318C209.131 18.0762 208.955 17.5312 208.791 17.4023C208.639 17.2734 208.387 17.209 208.035 17.209H203.992V25.9102H210.83Z" fill="black"/>
</g>
<defs>
<clipPath id="clip0">
<rect width="218" height="32" fill="white"/>
</clipPath>
</defs>
</svg>
